<svg xmlns="http://www.w3.org/2000/svg" viewBox="0 0 64 64" role="img" aria-labelledby="title">
  <title>GitHub 图标</title>
  <defs>
    <linearGradient id="github-bg" x1="10" y1="8" x2="54" y2="58" gradientUnits="userSpaceOnUse">
      <stop offset="0" stop-color="#93d0ff"/>
      <stop offset="1" stop-color="#2a5bcd"/>
    </linearGradient>
  </defs>
  <rect x="6" y="6" width="52" height="52" rx="16" fill="url(#github-bg)"/>
  <path d="M32 18c-7.73 0-14 6.27-14 14 0 6.17 4 11.41 9.55 13.25.7.14.95-.29.95-.67v-2.36c-3.88.84-4.7-1.65-4.7-1.65-.63-1.6-1.55-2.02-1.55-2.02-1.27-.87.09-.85.09-.85 1.41.1 2.15 1.45 2.15 1.45 1.25 2.14 3.27 1.52 4.07 1.16.12-.9.49-1.52.88-1.87-3.1-.35-6.35-1.55-6.35-6.89 0-1.52.54-2.76 1.44-3.74-.15-.35-.63-1.77.13-3.68 0 0 1.18-.38 3.86 1.43a13.4 13.4 0 0 1 7.04 0c2.68-1.81 3.86-1.43 3.86-1.43.76 1.91.28 3.33.14 3.68.89.98 1.43 2.22 1.43 3.74 0 5.35-3.26 6.53-6.37 6.88.5.43.95 1.28.95 2.58v3.84c0 .38.25.82.96.67A14.01 14.01 0 0 0 46 32c0-7.73-6.27-14-14-14Z" fill="#f7fbff"/>
</svg>